<svg width="25" height="18" viewBox="0 0 25 18" fill="none" xmlns="http://www.w3.org/2000/svg">
<g clip-path="url(#clip0_1123_1247)">
<path d="M18.4683 2.5607L18.0407 2.48652L17.9227 2.46608L17.6353 2.41643L17.487 2.39072L17.3404 2.36561L17.154 2.33348L16.8865 2.28792C16.6727 2.25171 16.4595 2.21608 16.2463 2.17928C12.3322 1.51806 8.41746 0.858599 4.50449 0.192711C3.52494 0.0256549 2.55239 -0.10285 1.57459 0.211402C0.0138383 0.714323 -0.476816 2.05136 0.446081 3.39949C1.28136 4.6197 2.51501 5.26222 3.92272 5.52273C6.61372 6.01981 9.31641 6.4503 12.0144 6.90883C13.4367 7.15007 14.8602 7.38956 16.303 7.63372C16.213 7.80603 16.0658 7.85509 15.9484 7.9322C13.5944 9.4836 11.2364 11.0303 8.88358 12.5841C7.90344 13.2307 7.68148 14.2611 8.28603 15.2669C8.83101 16.1746 9.64118 16.7704 10.5921 17.1746C12.435 17.9591 14.1821 17.9894 15.9326 16.7692L23.6721 11.6477L23.9011 11.4964C24.1242 11.3487 24.2989 11.1378 24.4029 10.8907C27.3421 3.94797 18.4683 2.5607 18.4683 2.5607Z" fill="#515151" fill-opacity="0.85"/>
</g>
<defs>
<clipPath id="clip0_1123_1247">
<rect width="25" height="17.757" fill="white"/>
</clipPath>
</defs>
</svg>
