<svg width="6" height="8" viewBox="0 0 6 8" fill="none" xmlns="http://www.w3.org/2000/svg">
<g clip-path="url(#clip0_2280_3559)">
<path d="M4.26462 5.61881L4.30292 5.51268L4.31348 5.48339L4.33917 5.41205L4.35245 5.37522L4.3655 5.33882L4.38213 5.29256L4.40588 5.22611C4.4248 5.17301 4.44355 5.12003 4.4626 5.0671C4.80862 4.09474 5.15422 3.12215 5.50139 2.1503C5.58839 1.90702 5.6652 1.6638 5.62888 1.39925C5.57057 0.976914 5.25038 0.790917 4.86352 0.966359C4.51338 1.12514 4.29316 1.41201 4.1629 1.76069C3.91413 2.42728 3.68188 3.09987 3.44266 3.76999C3.31668 4.12328 3.19109 4.47695 3.06343 4.83535C3.02337 4.80453 3.01746 4.76463 3.00301 4.73109C2.71206 4.05831 2.42248 3.3847 2.13087 2.71211C2.00956 2.43195 1.75575 2.3286 1.47091 2.43798C1.21389 2.53654 1.02476 2.71709 0.878325 2.94232C0.59426 3.37877 0.507606 3.82474 0.741004 4.32807L1.70294 6.54099L1.73134 6.60645C1.7591 6.67026 1.80521 6.7245 1.86378 6.76227C3.50877 7.82832 4.26462 5.61881 4.26462 5.61881Z" fill="#515151" fill-opacity="0.85"/>
</g>
<defs>
<clipPath id="clip0_2280_3559">
<rect width="7" height="5.5" fill="white" transform="matrix(0 -1 1 0 0.25 7.5)"/>
</clipPath>
</defs>
</svg>
