<svg width="25" height="18" viewBox="0 0 25 18" fill="none" xmlns="http://www.w3.org/2000/svg">
<g clip-path="url(#clip0_1123_1247)">
<path d="M18.4868 2.54141L18.0593 2.46723L17.9413 2.44679L17.6539 2.39714L17.5055 2.37144L17.3589 2.34632L17.1726 2.3142L16.9051 2.26863C16.6913 2.23242 16.4781 2.19679 16.2649 2.15999C12.3507 1.49877 8.43601 0.839312 4.52305 0.173424C3.54349 0.00636784 2.57094 -0.122137 1.59314 0.192115C0.032393 0.695036 -0.458261 2.03207 0.464636 3.3802C1.29992 4.60041 2.53356 5.24293 3.94127 5.50345C6.63228 6.00053 9.33496 6.43102 12.033 6.88954C13.4553 7.13078 14.8788 7.37027 16.3215 7.61443C16.2316 7.78674 16.0844 7.83581 15.967 7.91291C13.613 9.46431 11.2549 11.011 8.90214 12.5648C7.922 13.2114 7.70003 14.2418 8.30459 15.2476C8.84957 16.1553 9.65973 16.7511 10.6107 17.1553C12.4535 17.9398 14.2006 17.9702 15.9512 16.7499L23.6907 11.6284L23.9197 11.4772C24.1428 11.3294 24.3174 11.1185 24.4214 10.8714C27.3607 3.92868 18.4868 2.54141 18.4868 2.54141Z" fill="#515151" fill-opacity="0.85"/>
</g>
<defs>
<clipPath id="clip0_1123_1247">
<rect width="25" height="17.757" fill="white"/>
</clipPath>
</defs>
</svg>
