<svg width="10" height="18" viewBox="0 0 10 18" fill="none" xmlns="http://www.w3.org/2000/svg">
<g clip-path="url(#clip0_2241_4473)">
<path d="M7.32178 0.367083L1.25267 6.43183L0.928692 6.75557C0.928692 6.75557 0.907094 6.79874 0.885496 6.82032C0.691111 7.03615 0.496727 7.29514 0.345539 7.61888C-0.172819 8.78435 -0.108025 10.2951 0.518325 11.0937C0.539924 11.1584 0.604718 11.2016 0.647915 11.2448L0.971889 11.5685L7.041 17.6333C7.77534 18.3671 8.83366 17.9354 9.37362 16.7052C9.89197 15.5397 9.82718 14.029 9.20083 13.2304C9.17923 13.1656 9.11444 13.1225 9.07124 13.0793L5.11876 9.12967L9.33042 4.92104C9.33042 4.92104 9.41681 4.83471 9.46001 4.76996C10.0864 3.99298 10.1728 2.48219 9.65439 1.29514C9.11444 0.0649242 8.03452 -0.36673 7.30018 0.367083H7.32178Z" fill="#515151"/>
</g>
<defs>
<clipPath id="clip0_2241_4473">
<rect width="18" height="10" fill="white" transform="matrix(0 -1 1 0 0 18)"/>
</clipPath>
</defs>
</svg>
