<svg width="19" height="20" viewBox="0 0 19 20" fill="none" xmlns="http://www.w3.org/2000/svg">
<g clip-path="url(#clip0_1382_1206)">
<path fill-rule="evenodd" clip-rule="evenodd" d="M16.8325 14.4796H9.63795C9.04971 13.7104 8.09948 13.2126 7.01351 13.2126C5.92754 13.2126 5.02256 13.7104 4.38908 14.4796H3.2126C2.08138 14.4796 0.769166 15.4298 0.22618 16.5611C-0.316807 17.7375 0.180931 18.6878 1.31215 18.6878H4.34383C4.97731 19.5022 5.92754 20 7.01351 20C8.09948 20 9.09496 19.5022 9.68319 18.6878H14.7963C15.9728 18.6878 17.3303 17.7375 17.8732 16.6063C18.4162 15.4298 17.9185 14.5249 16.8325 14.4796Z" fill="#515151"/>
<path fill-rule="evenodd" clip-rule="evenodd" d="M16.8325 7.91866H15.9728C15.3846 7.10418 14.3891 6.60645 13.3031 6.60645C12.2171 6.60645 11.2669 7.10418 10.6334 7.91866H3.2126C2.08138 7.91866 0.769166 8.82364 0.22618 9.95486C-0.316807 11.1313 0.180931 12.0816 1.31215 12.0816H10.6334C11.2669 12.896 12.2171 13.3938 13.3031 13.3938C14.6153 13.3938 15.7465 12.6698 16.2895 11.5838C16.9683 11.2671 17.5565 10.6336 17.8732 10.0001C18.4162 8.82364 17.9185 7.91866 16.8325 7.91866Z" fill="#515151"/>
<path fill-rule="evenodd" clip-rule="evenodd" d="M1.31215 5.47511H4.34383C4.97731 6.28959 5.92754 6.78733 7.01351 6.78733C8.09948 6.78733 9.09496 6.28959 9.68319 5.47511H14.7963C15.9728 5.47511 17.3303 4.57014 17.8732 3.39366C18.4162 2.26244 17.9185 1.35747 16.8325 1.31222H9.68319C9.09496 0.497737 8.09948 0 7.01351 0C5.92754 0 4.97731 0.497737 4.34383 1.31222H3.2126C2.08138 1.35747 0.769166 2.26244 0.22618 3.34842C-0.316807 4.57014 0.180931 5.47511 1.31215 5.47511Z" fill="#515151"/>
</g>
<defs>
<clipPath id="clip0_1382_1206">
<rect width="18.0995" height="20" fill="white"/>
</clipPath>
</defs>
</svg>
