<svg width="43" height="30" viewBox="0 0 43 30" fill="none" xmlns="http://www.w3.org/2000/svg">
<g clip-path="url(#clip0_1046_850)">
<path d="M40.9412 7.14853H40.8936C40.8936 7.14853 40.8221 7.14853 40.7744 7.14853H34.5552L34.6505 6.93407L35.7228 4.62272L35.8896 4.24146L36.7951 2.31136C37.3908 1.04845 36.8427 0 35.5798 0H35.5322C35.5322 0 35.5322 0 35.5083 0H23.6656H23.618C22.9984 0 22.3312 0.238285 21.7117 0.667197C21.6164 0.714853 21.5449 0.786339 21.4496 0.857824C20.9492 1.23908 20.4964 1.7633 20.2343 2.31136L19.162 4.62272L18.1612 6.7911H18.1374L17.9706 7.14853H11.7037C11.0842 7.14853 10.417 7.38681 9.79747 7.81573C9.17793 8.22081 8.62987 8.81652 8.3201 9.45989L7.24782 11.7712L6.24703 13.9396H6.2232L5.15092 16.251L4.88881 16.8229L3.93567 18.8721L2.93488 21.0405L1.8626 23.3519L0.933287 25.3773L-0.138992 27.6886C-0.734703 28.9515 -0.186649 30 1.07626 30H30.5044C31.7435 29.9047 33.1732 28.9039 33.745 27.6886L34.6744 25.6632L35.7466 23.3519L36.7474 21.1596L37.8197 18.8483L38.892 16.5369C38.892 16.5369 38.9158 16.4178 38.9396 16.3463L38.9873 16.2272L39.9881 14.0349L41.0604 11.7236L42.1327 9.41223C42.7284 8.14932 42.1803 7.10087 40.9174 7.10087L40.9412 7.14853ZM22.7363 6.93407L23.8086 4.62272L23.9754 4.24146H31.2431L31.0763 4.62272L30.0755 6.7911H30.0516L29.8848 7.14853H22.641L22.7363 6.93407ZM31.0763 23.3757L30.1469 25.4011L29.9801 25.7824H5.3892L5.43686 25.687L6.50914 23.3757L7.50994 21.1835L7.77205 20.6354C7.77205 20.6354 7.77205 20.6116 7.79588 20.5878L8.58221 18.8959L9.01113 17.9666L9.79747 16.2986L10.8221 14.1064L11.8944 11.7951L12.0612 11.4138H16.0167L15.0635 13.4631C14.4678 14.726 15.0159 15.7744 16.2788 15.7744H16.3265C17.5894 15.7744 19.1144 14.726 19.7101 13.4631L20.6394 11.4376L27.9071 11.4138L26.9539 13.4631C26.3582 14.726 26.9063 15.7744 28.1692 15.7744H28.2168C29.4797 15.7744 31.0048 14.726 31.6005 13.4631L32.5298 11.4376L36.5806 11.4138L36.4138 11.7951L35.413 13.9635L34.3408 16.2748L33.4114 18.3002L32.3392 20.6116C32.3392 20.6116 32.3153 20.7307 32.2915 20.8022L32.1724 21.0643L31.1001 23.3757H31.0763Z" fill="#515151"/>
</g>
<defs>
<clipPath id="clip0_1046_850">
<rect width="42.6165" height="30" fill="white"/>
</clipPath>
</defs>
</svg>
