<svg width="25" height="20" viewBox="0 0 38 30" fill="none" xmlns="http://www.w3.org/2000/svg">
<g clip-path="url(#clip0_1046_855)">
<path d="M37.3849 4.94011C36.7366 2.29871 34.7915 0.617822 31.886 0.137567C29.1726 -0.318674 25.8108 0.377695 22.9533 1.96254C22.9052 1.98655 22.8572 2.01056 22.8092 2.03457C22.8092 2.01056 22.7612 1.98655 22.7372 1.96254C21.3444 0.377695 18.655 -0.318674 15.4853 0.137567C12.1716 0.617822 8.64168 2.32273 5.54404 4.94011C-1.15551 10.6071 0.309269 17.1626 2.2543 20.1402C2.2543 20.1642 2.30233 20.1642 2.30233 20.1642C2.30233 20.1882 2.32634 20.2122 2.30233 20.2362L3.59901 22.1092L4.77564 23.8862L6.0243 25.8312L7.1529 27.4881L8.42557 29.3611C8.76175 29.8653 9.26602 30.0574 9.77028 29.9854C10.2505 30.0574 10.8989 29.8413 11.6913 29.3611L14.7169 27.4881L17.4063 25.8312L20.4319 23.9342L23.2654 22.1332L26.291 20.2602C26.291 20.2602 26.3391 20.2122 26.3871 20.1882C26.4111 20.1882 26.4351 20.1882 26.4831 20.1642C31.1656 17.1866 38.7777 10.6311 37.3609 4.96413L37.3849 4.94011ZM24.9703 16.5863L24.9223 16.6343L24.6582 16.8024L24.1779 17.0906L21.1043 18.9876L18.2228 20.7885L15.2212 22.6855L12.5798 24.3184C12.5798 24.3184 12.3877 24.4144 12.3396 24.5105C12.3396 24.4384 12.2916 24.3664 12.2676 24.3184L11.163 22.6855L9.91436 20.7885L8.71372 18.9876L7.46506 17.0906L7.24895 16.8024L7.12888 16.6343C7.12888 16.6343 7.12888 16.6103 7.10487 16.5863C7.08086 16.5383 3.81513 11.3515 8.16143 7.70158C10.5387 5.68451 12.6998 5.01215 14.0686 4.82005C15.6294 4.57992 17.0702 4.84406 17.8626 5.51642C18.0066 5.56444 18.1027 5.66049 18.1747 5.75655C19.0632 6.74107 19.4234 8.01374 19.6395 8.95024C20.6961 8.01374 22.2809 6.74107 24.0819 5.75655C24.274 5.66049 24.4421 5.56444 24.6342 5.51642C26.0509 4.84406 27.7078 4.57992 29.0525 4.82005C30.2531 5.01215 31.79 5.68451 32.2942 7.70158C33.2067 11.3515 25.1144 16.5383 25.0424 16.5863H24.9703Z" fill="#515151"/>
</g>
<defs>
<clipPath id="clip0_1046_855">
<rect width="37.5" height="30" fill="white"/>
</clipPath>
</defs>
</svg>
