<svg width="25" height="20" viewBox="0 0 25 20" fill="none" xmlns="http://www.w3.org/2000/svg">
<g clip-path="url(#clip0_1382_1189)">
<path d="M24.3647 3.37659C23.9294 1.64717 22.647 0.529527 20.7529 0.21188C18.9647 -0.0940023 16.7529 0.376586 14.8706 1.41188C14.847 1.42364 14.8 1.44717 14.7765 1.4707C14.7765 1.44717 14.7412 1.43541 14.7294 1.41188C13.8117 0.364821 12.0235 -0.0940023 9.94116 0.21188C7.76469 0.529527 5.43527 1.64717 3.38822 3.37659C-1.02355 7.106 -0.0588434 11.4236 1.21174 13.3766C1.21174 13.4001 1.23527 13.4001 1.23527 13.4001C1.23527 13.4236 1.2588 13.4354 1.23527 13.4589L2.0941 14.6942L2.87057 15.8589V15.8825L3.6941 17.1413L4.43527 18.2354L5.27057 19.4707C5.48233 19.8119 5.81174 19.9295 6.16469 19.8825C6.47057 19.9413 6.91763 19.7884 7.43527 19.4707L9.42351 18.2354L11.1882 17.1413L13.1882 15.8825V15.8589L15.0706 14.6942L17.0588 13.4589C17.0588 13.4589 17.0941 13.4236 17.1176 13.4001C17.1412 13.4001 17.1529 13.4001 17.1765 13.3766C20.2706 11.4119 25.2706 7.09423 24.3412 3.36482L24.3647 3.37659Z" fill="#515151"/>
</g>
<defs>
<clipPath id="clip0_1382_1189">
<rect width="24.6235" height="20" fill="white"/>
</clipPath>
</defs>
</svg>
