<svg width="57" height="30" viewBox="0 0 57 30" fill="none" xmlns="http://www.w3.org/2000/svg">
<g clip-path="url(#clip0_2210_19643)">
<path d="M17.0513 6.92274H9.42296C7.53505 6.92274 5.26957 8.46442 4.3846 10.3605L4.36101 10.4077C3.47605 12.2979 4.29611 13.8454 6.18401 13.8454H11.8419L1.35806 25.0743C-0.246658 26.7932 -0.459047 28.8428 0.880184 29.6461L0.915583 29.6638C2.25481 30.4671 4.65599 29.717 6.25481 28.0041L15.0572 18.5709L15.0394 28.0041C15.0336 29.717 16.7386 30.4671 18.8211 29.6638L18.8801 29.6461C20.9686 28.8428 22.6737 26.7932 22.6737 25.0743L22.6972 13.8454H26.1399C26.2362 13.8544 26.3358 13.859 26.4386 13.859H35.0682L24.5845 25.0879C22.9798 26.8067 22.7674 28.8563 24.1066 29.6596L24.142 29.6774C25.4813 30.4807 27.8825 29.7306 29.4812 28.0176L38.2836 18.5845L38.2659 28.0176C38.26 29.7306 39.9651 30.4807 42.0476 29.6774L42.1066 29.6596C44.1951 28.8563 45.9001 26.8067 45.9001 25.0879L45.9237 13.859H51.5815C53.4695 13.859 55.735 12.3115 56.6199 10.4213L56.6435 10.374C57.5284 8.47797 56.7083 6.9363 54.8205 6.9363H47.1921L48.8204 3.4454C49.7054 1.55523 48.8854 0.0135541 46.9974 0.0135541H46.9443C45.0565 0.0135541 42.791 1.55523 41.906 3.4454L40.2777 6.9363H31.8931C31.7967 6.92733 31.697 6.92274 31.594 6.92274H23.9658L25.594 3.43184C26.479 1.54167 25.659 0 23.771 0H23.718C21.83 0 19.5645 1.54167 18.6796 3.43184L17.0513 6.92274Z" fill="#515151"/>
</g>
<defs>
<clipPath id="clip0_2210_19643">
<rect width="57" height="30" fill="white"/>
</clipPath>
</defs>
</svg>
