<svg width="12" height="8" viewBox="0 0 12 8" fill="none" xmlns="http://www.w3.org/2000/svg">
<g clip-path="url(#clip0_1915_1906)">
<path fill-rule="evenodd" clip-rule="evenodd" d="M0.879887 2.65348H3.15989H7.54655H9.82655C10.5866 2.65348 11.5066 2.05348 11.8666 1.33348V1.30682C12.2132 0.613483 11.9332 0.0401497 11.2399 -0.0131836H2.09322C1.35989 0.0401497 0.49322 0.613483 0.159886 1.32015V1.34682C-0.213447 2.06682 0.119886 2.66682 0.879887 2.66682V2.65348Z" fill="#515151"/>
<path fill-rule="evenodd" clip-rule="evenodd" d="M0.879887 8.00016H3.15989H7.54655H9.82655C10.5866 8.00016 11.5066 7.40016 11.8666 6.68016V6.6535C12.2132 5.96016 11.9332 5.38683 11.2399 5.3335H2.09322C1.35989 5.3735 0.49322 5.94683 0.159886 6.6535V6.68016C-0.213447 7.40016 0.119886 8.00016 0.879887 8.00016Z" fill="#515151"/>
</g>
<defs>
<clipPath id="clip0_1915_1906">
<rect width="12" height="8" fill="white"/>
</clipPath>
</defs>
</svg>
