<svg width="26" height="30" viewBox="0 0 26 30" fill="none" xmlns="http://www.w3.org/2000/svg">
<g clip-path="url(#clip0_1046_866)">
<path d="M8.99787 18.587H8.97477C8.37406 18.4943 7.70403 18.587 7.034 18.9346C6.36398 19.2127 5.76327 19.6994 5.37049 20.2556L3.96113 22.2951L3.10627 23.5929L1.58138 25.841L0.403063 27.5328C-0.35938 28.6684 -0.0128144 29.7345 1.21171 29.9663H1.23482C1.83553 30.059 2.50556 29.9663 3.17558 29.6186C3.84561 29.3405 4.44632 28.8538 4.83909 28.2976L6.24846 26.2581L6.4795 25.9105L8.6282 22.7354L9.80653 21.0436C10.569 19.908 10.2224 18.8419 8.99787 18.6101V18.587Z" fill="#515151"/>
<path d="M24.2006 2.75792C23.0685 0.996558 21.1046 0 18.6556 0C14.0347 0 8.7669 3.56907 6.6413 8.13469C5.43988 10.7304 5.43988 13.3492 6.6413 15.2497C7.77342 17.011 9.73728 18.0076 12.1863 18.0076C16.8072 18.0076 22.075 14.4385 24.2006 9.87288C25.402 7.27719 25.402 4.6815 24.2006 2.75792ZM20.5039 8.15787C19.0483 11.2866 15.2361 13.9286 12.1863 13.9286C11.4701 13.9286 10.5459 13.7896 10.0838 13.0711C9.64487 12.3759 9.73728 11.1707 10.338 9.89605C11.7936 6.76732 15.6058 4.12529 18.6556 4.12529C19.3718 4.12529 20.296 4.26434 20.758 4.98279C21.2201 5.70124 21.1046 6.8832 20.5039 8.15787Z" fill="#515151"/>
</g>
<defs>
<clipPath id="clip0_1046_866">
<rect width="25.0619" height="30" fill="white"/>
</clipPath>
</defs>
</svg>
