<svg width="25" height="25" viewBox="0 0 25 25" fill="none" xmlns="http://www.w3.org/2000/svg">
<path d="M12.9491 0.0831585C12.8612 0.127104 12.7391 0.229643 12.6805 0.312651L12.5731 0.464018L12.5487 8.91128L12.5243 17.3585L12.412 17.6759C12.0848 18.5744 11.3866 19.2384 10.4686 19.5119C10.0585 19.6339 9.3993 19.6291 8.95985 19.4923C7.76844 19.131 6.97742 18.0812 6.96766 16.8459C6.96278 16.0255 7.21668 15.425 7.8075 14.839C8.33973 14.3117 8.78406 14.1115 9.61414 14.0187C10.0438 13.9699 10.1854 13.9015 10.371 13.6525C10.4686 13.5207 10.4735 13.4621 10.4735 11.338C10.4735 9.30679 10.4686 9.14566 10.3856 9.00894C10.1903 8.69644 10.1073 8.66714 9.35047 8.67203C8.05164 8.68667 6.6161 9.12124 5.42469 9.8732C3.84754 10.8595 2.57801 12.466 2.00184 14.2043C1.16199 16.7335 1.55262 19.38 3.08582 21.5578C3.48133 22.1193 4.44324 23.0812 5.00477 23.4767C7.98328 25.5763 11.9286 25.4884 14.7704 23.2668C16.162 22.1779 17.1923 20.6252 17.6464 18.9406C17.91 17.9543 17.9198 17.7687 17.9198 13.5793C17.9198 11.4552 17.9296 9.71695 17.9393 9.71695C17.9442 9.71695 18.1688 9.81949 18.4374 9.94156C19.0868 10.2443 19.9169 10.5177 20.6542 10.6642C21.3524 10.8058 22.5536 10.9181 22.8222 10.8693C23.0565 10.8253 23.3251 10.5861 23.3886 10.3615C23.4179 10.2541 23.4374 9.38003 23.4374 8.15445C23.4374 6.14761 23.4374 6.1232 23.3251 5.90835C23.1688 5.59585 23.0077 5.52261 22.3534 5.4689C21.6747 5.41031 21.2059 5.28335 20.6298 5.00503C19.4237 4.42398 18.5448 3.39371 18.1444 2.09976C18.0663 1.85562 17.9882 1.42593 17.9491 1.05972C17.8807 0.371244 17.8222 0.239408 17.5243 0.0880413C17.3729 0.00991631 17.163 0.000150681 15.2343 0.000150681C13.3788 0.000150681 13.0907 0.00991631 12.9491 0.0831585ZM16.5038 1.48941C16.5038 1.6066 16.6796 2.3439 16.7821 2.66128C17.2802 4.20914 18.4618 5.57144 19.9462 6.31363C20.3905 6.53335 21.118 6.77261 21.5819 6.85074L21.9481 6.91421L21.9628 8.14956L21.9725 9.3898L21.6698 9.35562C20.3905 9.20914 18.9598 8.68179 17.8954 7.95914C17.5634 7.73453 17.4657 7.69546 17.2362 7.68081C16.8944 7.6564 16.6845 7.77847 16.5526 8.07144C16.4598 8.26675 16.455 8.44742 16.455 12.8419C16.455 16.6115 16.4403 17.4855 16.3817 17.8468C16.0741 19.7414 14.995 21.4064 13.4032 22.4367C12.8807 22.7785 12.5194 22.9591 11.9335 23.1593C11.118 23.4425 10.6835 23.5109 9.71668 23.506C8.96961 23.506 8.79383 23.4865 8.31531 23.3742C5.63953 22.7492 3.72547 20.7863 3.14442 18.0666C3.01746 17.4904 3.01746 16.1574 3.13953 15.5763C3.25672 15.0246 3.52039 14.2482 3.73035 13.8332C4.36024 12.5832 5.44422 11.4796 6.67469 10.8498C7.37293 10.4884 8.45203 10.1564 8.91102 10.1564H9.03309L9.02332 11.382L9.00867 12.6076L8.66199 12.6955C7.15321 13.0812 5.97156 14.3117 5.58582 15.8986C5.46375 16.3966 5.4784 17.339 5.61024 17.8468C5.9618 19.1652 6.88465 20.2296 8.12489 20.7472C8.69617 20.9865 9.08192 21.0597 9.7411 21.0597C10.3759 21.0597 10.7714 20.9865 11.3231 20.7668C12.4022 20.3371 13.3055 19.424 13.7255 18.34C14.0233 17.5734 14.0136 17.8761 14.0136 9.29703V1.46499H15.2587C15.9423 1.46499 16.5038 1.47476 16.5038 1.48941Z" fill="#515151"/>
</svg>
