<svg width="27" height="30" viewBox="0 0 27 30" fill="none" xmlns="http://www.w3.org/2000/svg">
<g clip-path="url(#clip0_1046_860)">
<path d="M23.89 15.9519L23.6354 15.7429L21.7604 14.3962L21.066 13.8389H21.0428C20.5335 13.4674 19.5613 13.7925 18.6354 14.7445L17.6863 15.6965L16.7835 16.6021L16.5289 16.8575L16.4363 16.9504L14.2141 19.1795L12.1307 21.2693L10.7187 22.6857V21.2693L10.6492 19.1795L10.6029 16.9504V16.8575V16.6021V15.6965L10.5567 14.7445C10.5567 13.7925 9.9085 13.4674 9.02887 13.8389H9.00572L7.75572 14.3962L4.58441 15.7429L4.14459 15.9519L1.85291 16.9272C0.348277 17.5541 -0.392467 18.6919 0.209388 19.4349H0.255684C0.556611 19.8296 1.11217 20.0386 1.82976 20.0618C2.52421 20.1083 3.35755 19.969 4.14459 19.6439L6.08904 18.808L6.13534 20.5262L6.20478 22.5928H6.18163L6.25108 24.8219L6.32052 26.7491L6.38997 28.955C6.38997 28.955 6.43626 29.0479 6.43626 29.1176C6.43626 29.1872 6.43626 29.3033 6.43626 29.373V29.4194C6.43626 29.4194 6.50571 29.5123 6.52886 29.5587C6.57515 29.6516 6.62145 29.6981 6.6909 29.7677C6.78349 29.8374 6.85293 29.907 6.96867 29.9535C7.06127 29.9767 7.15386 29.9999 7.2696 29.9999C7.38534 29.9999 7.47794 29.9999 7.61683 29.9535C7.75571 29.907 7.91775 29.8606 8.07979 29.7677C8.19553 29.6981 8.31127 29.6516 8.45016 29.5587C8.54275 29.5123 8.6122 29.4891 8.68164 29.4194L8.72794 29.373C8.72794 29.373 8.88998 29.2104 8.98257 29.1176C9.05202 29.0479 9.12146 29.0247 9.19091 28.955L11.39 26.7491L13.3113 24.8219L15.5104 22.616L17.5706 20.5262L19.2835 18.808L20.3947 19.6439C20.8576 19.969 21.5521 20.1083 22.2928 20.0618C23.0336 20.0386 23.7974 19.8296 24.4687 19.4581H24.515C25.8576 18.6919 26.2049 17.5541 25.3252 16.9272L23.9595 15.9519H23.89Z" fill="#515151"/>
<path d="M15.58 13.3746C19.2606 13.3746 23.7282 10.3793 25.5106 6.68731C27.293 2.99536 25.7653 0 22.0847 0C18.4041 0 13.9365 2.99536 12.1541 6.68731C10.3717 10.3793 11.8995 13.3746 15.58 13.3746ZM16.2513 6.68731C16.9458 5.24768 18.6587 4.08669 20.0939 4.08669C21.5291 4.08669 22.1078 5.24768 21.4134 6.68731C20.7189 8.12694 19.006 9.28793 17.5708 9.28793C16.1356 9.28793 15.5569 8.12694 16.2513 6.68731Z" fill="#515151"/>
</g>
<defs>
<clipPath id="clip0_1046_860">
<rect width="26.2501" height="30" fill="white"/>
</clipPath>
</defs>
</svg>
