<svg width="17" height="10" viewBox="0 0 17 10" fill="none" xmlns="http://www.w3.org/2000/svg">
<path d="M16.6537 2.51902L10.9259 8.24684L10.6202 8.5526C10.6202 8.5526 10.5794 8.57298 10.559 8.59336C10.3552 8.77682 10.1106 8.96027 9.80482 9.10296C8.7041 9.59217 7.27725 9.53101 6.52305 8.93989C6.4619 8.9195 6.42113 8.85835 6.38036 8.81759L6.07461 8.51183L0.34679 2.78401C-0.346256 2.09097 0.061418 1.09217 1.22329 0.582574C2.32401 0.0933657 3.75087 0.154516 4.50506 0.745644C4.56621 0.766027 4.60698 0.827179 4.64775 0.867947L8.37796 4.59816L12.3528 0.623342C12.3528 0.623342 12.4343 0.541806 12.4955 0.50104C13.2293 -0.0900879 14.6561 -0.171622 15.7772 0.317587C16.9391 0.827179 17.3468 1.84636 16.6537 2.53941V2.51902Z" fill="#515151"/>
</svg>
